# xmcd
#
# Track frame offsets:
#  150
#  11877
#  27000
#  39143
#  54526
#  70589
#  83831
#  98065
#  108519
#  123662
#  135856
#  148170
#  165448
#
# Disc length: 2452 seconds
#
# Revision: 1
# Processed by: cddbd v1.5.1PL2 Copyright (c) Steve Scherf et al.
# Submitted via: Collectorz.com_Music_Collector 6.9
#
DISCID=a009920d
DTITLE=Bobby Hebb - that's all i know
DYEAR=2005
DGENRE=Funk - Soul
TTITLE0=different strokes
TTITLE1=cold cold night
TTITLE2=a satisfied mind
TTITLE3=proud woman
TTITLE4=sunny (duet with astrid north)
TTITLE5=when love goes wrong
TTITLE6=we're gonna make it
TTITLE7=cold cold heart
TTITLE8=bound by love
TTITLE9=willow tree
TTITLE10=don't tear me down
TTITLE11=that's all i wanna know
TTITLE12=love love love
EXTD=
EXTT0=
EXTT1=
EXTT2=
EXTT3=
EXTT4=
EXTT5=
EXTT6=
EXTT7=
EXTT8=
EXTT9=
EXTT10=
EXTT11=
EXTT12=
PLAYORDER=
